<svg xmlns="http://www.w3.org/2000/svg" xmlns:xlink="http://www.w3.org/1999/xlink"><symbol id="arrow" viewBox="0 0 62.2 116"><path d="M55.2 114.8a4.1 4.1 0 0 0 5.8 0 4.1 4.1 0 0 0 0-5.8L10 58 61 7a4.1 4.1 0 1 0-5.8-5.8l-54 53.9a4.1 4.1 0 0 0 0 5.8z"/></symbol><symbol id="logo" viewBox="0 0 180 98"><path d="M102 64.8H83.8q-14.8 14-31 14a43 43 0 0 1-26.7-9.3Q13.8 60 13.8 46t17.1-20.9Q43.5 20 60 20a52.8 52.8 0 0 1 9.8 1.3 52.6 52.6 0 0 0 9.7 1.3q2.4 0 5.1-2.5t2.8-4.9q0-9.3-19-9.3l-8.6 1.9Q48 9.3 42.3 9.6q-16.8 3.1-28.7 13.2Q0 34.3 0 50.3q0 19 18 31.4A61 61 0 0 0 53.9 93q21.1 0 37-15.1A119.3 119.3 0 0 0 102 64.7zm55.1 0a29.4 29.4 0 0 1-3.4 7.8q-.5.7-8.4 9.1-5.2 6-5.2 10.5 0 5.8 6 5.8 10.9 0 18.3-21.6a119 119 0 0 0 3.3-11.7zm-39.8-44.5L101 43l-.2.3c4.8 1.8 8.5 2.7 11 2.7h4l.3-.4 12.9-18q9.7-11.7 16.4-11.7 14.2 0 14.2 27.3v2.7h3.4a25.4 25.4 0 0 0 7-1.2 72.6 72.6 0 0 0-5.7-27.9Q157.3 0 144 0 132 0 117.3 20.3zM88 42.8q4.2 0 12.5 2.5t12.5 2.4h51.2q5 0 13.8-2.9A3.6 3.6 0 0 1 180 48q0 14.2-10.9 14.2H84.2a18.4 18.4 0 0 1-1.6-7.2 18.3 18.3 0 0 1 1.6-7.3q1.6-4.9 4-5zm-34.7-5.5q7.9 0 7.9 9.3A17.4 17.4 0 0 1 58 56.7q-3.3 4.7-7.5 4.7-7.8 0-7.8-9.9a16.8 16.8 0 0 1 3-10 9 9 0 0 1 7.6-4.2z"/></symbol></svg>
